<svg xmlns="http://www.w3.org/2000/svg" height="1024" preserveAspectRatio="xMidYMid meet" style="display: block;" version="1.1" viewBox="570 380 1050 1280" width="1024">
<defs>
	<linearGradient gradientUnits="userSpaceOnUse" id="Gradient1" x1="789.068" x2="814.009" y1="939.829" y2="958.932">
		<stop class="stop0" offset="0" stop-color="rgb(255,255,255)" stop-opacity="0.823529"></stop>
		<stop class="stop1" offset="1" stop-color="rgb(254,253,252)" stop-opacity="1"></stop>
	</linearGradient>
	<linearGradient gradientUnits="userSpaceOnUse" id="Gradient2" x1="1080.39" x2="1090.75" y1="1164.39" y2="1154.47">
		<stop class="stop0" offset="0" stop-color="rgb(17,8,41)" stop-opacity="1"></stop>
		<stop class="stop1" offset="1" stop-color="rgb(33,17,75)" stop-opacity="1"></stop>
	</linearGradient>
	<linearGradient gradientUnits="userSpaceOnUse" id="Gradient3" x1="1085.99" x2="1099.37" y1="1116.39" y2="1103.21">
		<stop class="stop0" offset="0" stop-color="rgb(60,28,144)" stop-opacity="1"></stop>
		<stop class="stop1" offset="1" stop-color="rgb(79,46,196)" stop-opacity="1"></stop>
	</linearGradient>
	<linearGradient gradientUnits="userSpaceOnUse" id="Gradient4" x1="1258.68" x2="1294.34" y1="1306.92" y2="1271.87">
		<stop class="stop0" offset="0" stop-color="rgb(56,17,109)" stop-opacity="1"></stop>
		<stop class="stop1" offset="1" stop-color="rgb(99,55,234)" stop-opacity="1"></stop>
	</linearGradient>
	<linearGradient gradientUnits="userSpaceOnUse" id="Gradient5" x1="1287.87" x2="1024.56" y1="1201.96" y2="1362.19">
		<stop class="stop0" offset="0" stop-color="rgb(100,88,237)" stop-opacity="1"></stop>
		<stop class="stop1" offset="1" stop-color="rgb(50,143,248)" stop-opacity="1"></stop>
	</linearGradient>
	<linearGradient gradientUnits="userSpaceOnUse" id="Gradient6" x1="1132.18" x2="1213.25" y1="1312.85" y2="1232.58">
		<stop class="stop0" offset="0" stop-color="rgb(0,0,0)" stop-opacity="1"></stop>
		<stop class="stop1" offset="1" stop-color="rgb(40,19,88)" stop-opacity="1"></stop>
	</linearGradient>
	<linearGradient gradientUnits="userSpaceOnUse" id="Gradient7" x1="1078.86" x2="931.124" y1="1148.67" y2="1056.97">
		<stop class="stop0" offset="0" stop-color="rgb(74,105,249)" stop-opacity="1"></stop>
		<stop class="stop1" offset="1" stop-color="rgb(36,167,252)" stop-opacity="1"></stop>
	</linearGradient>
</defs>
<path d="M 961.79 808.466 C 964.284 805.153 979.088 791.046 982.852 787.312 C 1000.35 769.792 1018.06 752.483 1035.97 735.388 C 1077.64 694.865 1118.58 653.292 1160.23 612.725 C 1186.99 586.665 1212.98 590.004 1247.91 590.096 L 1306.9 590.126 C 1343.91 589.912 1380.91 589.919 1417.92 590.148 C 1423.76 590.175 1463.36 589.026 1465.65 591.52 L 1463.61 593.26 C 1454.52 602.911 1442.86 613.402 1433.14 622.814 L 1358.03 694.762 C 1288.48 761.093 1219.84 828.37 1152.13 896.572 C 1111.34 937.001 1068.69 977.366 1030.11 1019.78 C 1027.05 1022.05 1021.48 1027.85 1018.64 1030.72 C 1015.35 1033.49 1011.61 1037.11 1008.55 1040.16 L 1001.78 1046.85 L 972.542 1076.2 C 970.28 1078.44 960.086 1088.2 958.809 1090 C 946.048 1101.59 932.719 1116.45 920.066 1128.64 C 914.536 1133.96 898.658 1149.64 894.466 1155.14 C 884.608 1169.06 886.964 1190.32 886.958 1206.99 L 886.996 1280.5 C 887.009 1294.44 887.778 1308.84 886.443 1322.7 C 885.641 1331.03 883.963 1340.62 880.133 1348.13 C 869.011 1369.95 804.207 1430.01 784.78 1449.53 C 748.917 1485.57 712.022 1524.83 674.807 1559.04 C 674.289 1540.59 674.927 1522.04 674.894 1503.58 C 674.859 1483.26 674.167 1462.9 674.224 1442.6 C 672.613 1416.66 673.929 1376.15 673.935 1349.23 C 674.22 1279.21 674.132 1209.19 673.67 1139.17 C 673.392 1135.26 673.267 1131.33 673.293 1127.4 C 673.465 1085.38 700.13 1068.43 728.676 1040.21 C 732.879 1036.58 736.469 1032.41 740.465 1029.1 L 741.641 1027.88 C 748.041 1021.32 754.524 1014.85 761.088 1008.45 C 763.189 1006.45 764.105 1005.36 765.923 1003.12 C 769.71 1000.18 773.311 996.348 776.615 992.818 C 800.511 967.291 827.046 943.821 850.739 918.179 C 852.547 916.836 860.152 908.516 862.281 906.321 C 864.592 904.016 870.32 898.541 871.926 896.11 C 898.396 868.54 934.003 835.128 961.79 808.466 z" fill="rgb(0,0,0)" transform="translate(0,0)"></path>
<path d="M 1357.64 624.094 C 1362.18 620.081 1428.6 604.967 1438.1 605.263 L 1438.97 606.665 C 1434.4 617.015 1369.37 667.596 1369.15 675.626 L 1371.37 677.181 C 1372.2 677.032 1373.03 676.884 1373.86 676.735 C 1393.46 657.744 1413.56 639.238 1433.15 620.237 C 1439.32 614.252 1456.42 595.423 1463.61 593.26 C 1454.52 602.911 1442.86 613.402 1433.14 622.814 L 1358.03 694.762 C 1288.48 761.093 1219.84 828.37 1152.13 896.572 C 1111.34 937.001 1068.69 977.366 1030.11 1019.78 C 1027.05 1022.05 1021.48 1027.85 1018.64 1030.72 C 1015.35 1033.49 1011.61 1037.11 1008.55 1040.16 L 1001.78 1046.85 L 972.542 1076.2 C 970.28 1078.44 960.086 1088.2 958.809 1090 C 946.048 1101.59 932.719 1116.45 920.066 1128.64 C 914.536 1133.96 898.658 1149.64 894.466 1155.14 C 884.608 1169.06 886.964 1190.32 886.958 1206.99 L 886.996 1280.5 C 887.009 1294.44 887.778 1308.84 886.443 1322.7 C 885.641 1331.03 883.963 1340.62 880.133 1348.13 C 869.011 1369.95 804.207 1430.01 784.78 1449.53 C 748.917 1485.57 712.022 1524.83 674.807 1559.04 C 674.289 1540.59 674.927 1522.04 674.894 1503.58 C 674.859 1483.26 674.167 1462.9 674.224 1442.6 C 679.607 1450.97 672.975 1468.86 679.959 1471.36 C 679.997 1465.45 679.246 1451.96 680.096 1447.4 L 681.052 1447.97 C 682.171 1454.4 681.702 1464.63 681.644 1471.5 L 681.294 1517.15 C 681.257 1523.54 680.892 1536.19 681.702 1541.92 C 701.097 1522.38 726.731 1499.69 744.317 1480.09 C 745.143 1470.97 744.512 1457.13 744.983 1447.04 L 745.023 1430.48 L 744.936 1411.05 C 744.958 1408.29 744.811 1405.14 744.74 1402.35 L 744.933 1398.08 C 765.132 1385.36 801.633 1345.38 812.134 1323.86 C 819.371 1309.03 817.78 1280.62 817.375 1264.18 C 816.913 1245.45 817.342 1225.75 817.582 1206.88 C 817.786 1174.56 815.531 1142.96 840.167 1118.28 C 859.105 1099.31 879.063 1080.42 897.14 1060.54 C 905.901 1050.91 915.541 1042.69 924.474 1033.42 C 965.631 990.851 1007.14 948.623 1048.99 906.741 C 1064.04 891.392 1078.34 875.411 1093.21 860 C 1099.42 853.572 1108.41 846.527 1115.25 839.809 C 1160.91 794.559 1205.67 748.414 1249.52 701.4 C 1271.15 678.601 1286.38 664.038 1307.24 639.673 L 1306.2 639.087 C 1303.67 640.153 1304.99 639.782 1301.8 639.257 C 1308.17 636.956 1312.04 636.167 1318.65 634.74 C 1322.96 632.798 1340.68 628.774 1346.31 627.423 C 1346.59 627.284 1355.84 624.735 1357.64 624.094 z" fill="rgb(66,34,158)" transform="translate(0,0)"></path>
<path d="M 1357.64 624.094 C 1362.18 620.081 1428.6 604.967 1438.1 605.263 L 1438.97 606.665 C 1434.4 617.015 1369.37 667.596 1369.15 675.626 L 1371.37 677.181 C 1372.2 677.032 1373.03 676.884 1373.86 676.735 C 1393.46 657.744 1413.56 639.238 1433.15 620.237 C 1439.32 614.252 1456.42 595.423 1463.61 593.26 C 1454.52 602.911 1442.86 613.402 1433.14 622.814 L 1358.03 694.762 C 1288.48 761.093 1219.84 828.37 1152.13 896.572 C 1111.34 937.001 1068.69 977.366 1030.11 1019.78 C 1027.05 1022.05 1021.48 1027.85 1018.64 1030.72 C 1015.35 1033.49 1011.61 1037.11 1008.55 1040.16 L 1001.78 1046.85 L 972.542 1076.2 C 970.28 1078.44 960.086 1088.2 958.809 1090 C 946.048 1101.59 932.719 1116.45 920.066 1128.64 C 914.536 1133.96 898.658 1149.64 894.466 1155.14 C 884.608 1169.06 886.964 1190.32 886.958 1206.99 L 886.996 1280.5 C 887.009 1294.44 887.778 1308.84 886.443 1322.7 C 885.641 1331.03 883.963 1340.62 880.133 1348.13 C 869.011 1369.95 804.207 1430.01 784.78 1449.53 C 748.917 1485.57 712.022 1524.83 674.807 1559.04 C 674.289 1540.59 674.927 1522.04 674.894 1503.58 C 674.859 1483.26 674.167 1462.9 674.224 1442.6 C 679.607 1450.97 672.975 1468.86 679.959 1471.36 C 679.997 1465.45 679.246 1451.96 680.096 1447.4 L 681.052 1447.97 C 682.171 1454.4 681.702 1464.63 681.644 1471.5 L 681.294 1517.15 C 681.257 1523.54 680.892 1536.19 681.702 1541.92 C 701.097 1522.38 726.731 1499.69 744.317 1480.09 C 745.143 1470.97 744.512 1457.13 744.983 1447.04 L 745.023 1430.48 C 755.349 1423.71 762.352 1419.35 772.23 1411.1 C 783.767 1401.47 798.668 1399.34 807.332 1385.58 L 808.425 1387.54 C 811.6 1381.62 809.423 1378.31 815.594 1373.19 C 816.997 1379.65 820.834 1378.98 826.425 1377.21 L 826.029 1374.67 L 826.015 1376.51 C 825.348 1374.01 828.9 1372.86 830.891 1367.43 L 830.09 1365.71 L 830.691 1364.32 C 832.589 1364.28 831.971 1364.24 833.626 1364.35 L 834.66 1364.43 L 831.661 1362.82 C 831.366 1359.75 836.97 1359.88 838.563 1357.57 C 840.64 1354.57 841.387 1350 843.361 1346.4 C 844.948 1345.57 846.372 1344.75 847.921 1343.85 C 846.543 1343.4 845.582 1343.13 844.195 1342.76 C 845.302 1338.97 849.067 1326.34 851.609 1324.14 L 853.291 1326.63 C 855.711 1323.41 854.984 1314.27 856.073 1310.1 C 860.851 1291.84 860.539 1276.34 860.294 1257.6 C 859.056 1262.56 857.8 1267.49 856.548 1272.57 L 855.416 1272.96 C 854.168 1269.26 857.371 1258.85 858.484 1254.53 C 857.569 1255.25 858.13 1254.73 857.096 1256.55 L 856.174 1258.2 L 855.283 1258.04 C 857.419 1242.94 853.629 1217.79 855.355 1203.39 C 856.941 1190.15 871.926 1151.66 876.992 1137.04 C 877.264 1136.26 880.602 1133.43 881.401 1132.75 L 882.284 1132.01 C 865.922 1129.8 869.564 1155.21 860.977 1163.68 C 861.122 1161.46 861.132 1161.83 860.893 1159.52 L 857.903 1161.63 L 857.129 1160.9 C 857.33 1150.22 859.687 1147.69 865.101 1139.83 L 866.124 1139.7 L 867.42 1140.59 C 869.123 1138.02 868.459 1139.42 868.517 1135.83 C 873.918 1133.05 875.926 1123.48 882.749 1122.52 C 881.773 1126.15 880.967 1123.66 878.756 1128.29 L 881.733 1130.51 C 883.715 1130.5 885.676 1130.54 887.656 1130.61 C 885.135 1132.74 916.852 1096.11 915.154 1099.27 C 929.702 1092.73 927.912 1085.8 935.86 1075.64 C 947.255 1061.07 967.07 1048.41 982.232 1038.4 C 984.146 1037.14 989.788 1024.04 994.538 1019.87 L 995.23 1022.19 L 995.756 1022.22 C 999.286 1017.36 1005.46 1012.78 1010.15 1008.48 C 1010.41 1005.82 1010.79 1003.66 1011.25 1001.05 C 1031.78 987.805 1056.81 958.838 1074.52 940.23 C 1096.41 916.904 1118.95 894.189 1142.1 872.112 C 1153.84 860.995 1165.88 850.257 1179.95 842.241 C 1180.75 841.786 1184.72 835.274 1186.54 833.364 C 1196.7 823.122 1206.33 811.237 1217.27 801.782 C 1223.76 796.176 1224.75 790.002 1230.29 786.526 L 1228.93 784.786 L 1229.32 783.762 L 1234.44 782.76 C 1234.33 781.979 1234.22 781.198 1234.1 780.418 C 1246.33 771.46 1258.97 760.377 1270.38 750.671 C 1277.43 744.676 1280.84 740.115 1287.06 734.063 C 1290.75 730.475 1295.03 730.566 1297.82 725.568 C 1299.64 722.288 1303.97 717.787 1306.49 715.006 L 1305.13 714.919 C 1305.6 711 1306.18 712.377 1304.73 709.619 C 1302.16 709.568 1302.33 709.498 1300.07 710.688 C 1301.8 711.611 1301.27 710.988 1301.96 712.229 C 1298.95 717.902 1295.24 725.209 1288.21 725.311 L 1288.04 723.919 L 1292.73 719.789 C 1290.81 719.083 1291.53 719.653 1290.42 718.254 C 1296.48 705.021 1307.13 713.254 1309.16 706.385 L 1303.58 706.862 C 1304.04 702.86 1309.54 704.649 1313.68 700.297 L 1308.7 699.697 L 1308.46 698.499 C 1313.96 695.686 1309.69 699.256 1316.25 698.088 L 1316.81 697.038 L 1313.77 695.622 C 1320.58 692.777 1323.45 692.871 1328.99 687.43 C 1343.36 673.326 1382.6 628.594 1398.27 620.487 L 1397.8 619.311 C 1394.88 618.782 1387.94 621.753 1384.52 622.866 L 1382.84 621.983 L 1383.34 621.119 L 1383.4 622.557 C 1385.02 619.342 1383.9 620.786 1387.51 618.645 L 1386.19 617.495 C 1377.36 619.65 1366.45 622.62 1357.64 624.094 z" fill="rgb(76,60,217)" transform="translate(0,0)"></path>
<path d="M 1357.64 624.094 C 1362.18 620.081 1428.6 604.967 1438.1 605.263 L 1438.97 606.665 C 1434.4 617.015 1369.37 667.596 1369.15 675.626 L 1371.37 677.181 C 1372.2 677.032 1373.03 676.884 1373.86 676.735 C 1393.46 657.744 1413.56 639.238 1433.15 620.237 C 1439.32 614.252 1456.42 595.423 1463.61 593.26 C 1454.52 602.911 1442.86 613.402 1433.14 622.814 L 1358.03 694.762 C 1288.48 761.093 1219.84 828.37 1152.13 896.572 C 1111.34 937.001 1068.69 977.366 1030.11 1019.78 C 1027.05 1022.05 1021.48 1027.85 1018.64 1030.72 C 1015.35 1033.49 1011.61 1037.11 1008.55 1040.16 L 1001.78 1046.85 L 972.542 1076.2 C 970.28 1078.44 960.086 1088.2 958.809 1090 C 946.048 1101.59 932.719 1116.45 920.066 1128.64 C 914.536 1133.96 898.658 1149.64 894.466 1155.14 C 884.608 1169.06 886.964 1190.32 886.958 1206.99 L 886.996 1280.5 C 887.009 1294.44 887.778 1308.84 886.443 1322.7 C 885.641 1331.03 883.963 1340.62 880.133 1348.13 C 869.011 1369.95 804.207 1430.01 784.78 1449.53 C 748.917 1485.57 712.022 1524.83 674.807 1559.04 C 674.289 1540.59 674.927 1522.04 674.894 1503.58 C 674.859 1483.26 674.167 1462.9 674.224 1442.6 C 679.607 1450.97 672.975 1468.86 679.959 1471.36 C 679.997 1465.45 679.246 1451.96 680.096 1447.4 L 681.052 1447.97 C 682.171 1454.4 681.702 1464.63 681.644 1471.5 L 681.294 1517.15 C 681.257 1523.54 680.892 1536.19 681.702 1541.92 C 701.097 1522.38 726.731 1499.69 744.317 1480.09 C 745.143 1470.97 744.512 1457.13 744.983 1447.04 C 748.24 1451.68 747.162 1465.27 747.543 1472.47 C 760.53 1459.31 777.788 1442 791.559 1429.61 C 819.608 1404.71 851.667 1377.48 872.32 1346.07 C 882.741 1330.22 880.205 1298.33 880.065 1279.72 L 879.663 1203.54 C 879.686 1184.88 877.691 1163.12 890.796 1148.67 C 928.252 1107.38 971.131 1068.6 1010.29 1028.91 L 1334.84 704.688 C 1357.86 681.812 1381.19 659.247 1404.82 637 C 1413.43 628.904 1431.33 614.117 1437.75 605.892 C 1423.69 608.928 1398.63 612.269 1386.19 617.495 C 1377.36 619.65 1366.45 622.62 1357.64 624.094 z" fill="url(#Gradient7)" transform="translate(0,0)"></path>
<path d="M 1346.31 627.423 L 1348.21 628.165 C 1341.99 641.758 1301.34 679.843 1289.32 692.101 L 1213.21 768.558 C 1200.08 781.858 1188 800.37 1173.89 813.551 C 1164.89 821.954 1155.64 830.04 1146.46 838.202 C 1131.97 851.094 1117.8 864.343 1103.97 877.939 L 993.296 990.629 C 982.027 1002.07 970.036 1016.37 958.231 1026.85 C 934.997 1047.5 912.279 1067.7 890.141 1089.64 C 877.037 1102.62 862.304 1114.21 851.358 1129.54 C 812.579 1184.05 858.944 1286.23 822.108 1341.72 C 808.437 1362.32 782.034 1382.69 762.586 1398.66 C 756.987 1403.25 750.101 1405.18 744.936 1411.05 C 744.958 1408.29 744.811 1405.14 744.74 1402.35 L 744.933 1398.08 C 765.132 1385.36 801.633 1345.38 812.134 1323.86 C 819.371 1309.03 817.78 1280.62 817.375 1264.18 C 816.913 1245.45 817.342 1225.75 817.582 1206.88 C 817.786 1174.56 815.531 1142.96 840.167 1118.28 C 859.105 1099.31 879.063 1080.42 897.14 1060.54 C 905.901 1050.91 915.541 1042.69 924.474 1033.42 C 965.631 990.851 1007.14 948.623 1048.99 906.741 C 1064.04 891.392 1078.34 875.411 1093.21 860 C 1099.42 853.572 1108.41 846.527 1115.25 839.809 C 1160.91 794.559 1205.67 748.414 1249.52 701.4 C 1271.15 678.601 1286.38 664.038 1307.24 639.673 L 1306.2 639.087 C 1303.67 640.153 1304.99 639.782 1301.8 639.257 C 1308.17 636.956 1312.04 636.167 1318.65 634.74 C 1322.96 632.798 1340.68 628.774 1346.31 627.423 z" fill="rgb(37,16,84)" transform="translate(0,0)"></path>
<path d="M 1301.8 639.257 C 1308.17 636.956 1312.04 636.167 1318.65 634.74 C 1313.88 639.986 1313.19 635.598 1309.55 639.776 C 1316.1 641.579 1315.55 636.069 1318.16 638.915 C 1270.52 696.051 1213.1 748.978 1163.07 804.502 C 1149.68 819.366 1129.1 832.798 1115.34 847.898 C 1097.81 865.658 1080.19 884.876 1062.82 902.994 L 957.81 1010.7 C 934.636 1034.04 909.489 1056.8 886.442 1080.46 C 871.503 1095.8 853.573 1107.33 841.664 1125.81 C 797.869 1185.13 849.441 1280.26 811.158 1338.59 C 797.684 1359.12 763.696 1384.51 744.74 1402.35 L 744.933 1398.08 C 765.132 1385.36 801.633 1345.38 812.134 1323.86 C 819.371 1309.03 817.78 1280.62 817.375 1264.18 C 816.913 1245.45 817.342 1225.75 817.582 1206.88 C 817.786 1174.56 815.531 1142.96 840.167 1118.28 C 859.105 1099.31 879.063 1080.42 897.14 1060.54 C 905.901 1050.91 915.541 1042.69 924.474 1033.42 C 965.631 990.851 1007.14 948.623 1048.99 906.741 C 1064.04 891.392 1078.34 875.411 1093.21 860 C 1099.42 853.572 1108.41 846.527 1115.25 839.809 C 1160.91 794.559 1205.67 748.414 1249.52 701.4 C 1271.15 678.601 1286.38 664.038 1307.24 639.673 L 1306.2 639.087 C 1303.67 640.153 1304.99 639.782 1301.8 639.257 z" fill="rgb(14,8,36)" transform="translate(0,0)"></path>
<path d="M 881.733 1130.51 C 882.869 1129.28 893.63 1116.69 892.451 1115.94 C 887.588 1112.82 906.827 1096.74 910.363 1094.99 L 910.71 1095.13 C 912.048 1098.51 910.522 1098.07 915.154 1099.27 C 916.852 1096.11 885.135 1132.74 887.656 1130.61 C 885.676 1130.54 883.715 1130.5 881.733 1130.51 z" fill="rgb(74,45,190)" transform="translate(0,0)"></path>
<path d="M 961.79 808.466 L 962.216 810.373 C 951.931 822.435 935.421 836.843 923.804 848.111 C 917.085 859.385 910.022 869.454 902.561 880.201 C 898.673 885.801 895.893 893.603 892.192 899.414 C 873.088 929.264 860.218 962.59 845.734 994.816 C 843.114 1000.64 842.598 1008.36 840.579 1014.47 C 838.672 1019.93 829.325 1024.24 827.1 1031.69 C 814.737 1045.47 800.654 1058.68 787.616 1071.82 C 775.242 1084.3 762.428 1093.25 753.857 1108.81 C 749.28 1116.99 746.4 1126.02 745.391 1135.34 C 744.315 1145.45 744.722 1159.63 744.772 1170.03 L 745.036 1224.83 L 744.933 1398.08 L 744.74 1402.35 C 744.811 1405.14 744.958 1408.29 744.936 1411.05 L 745.023 1430.48 L 744.983 1447.04 C 744.512 1457.13 745.143 1470.97 744.317 1480.09 C 726.731 1499.69 701.097 1522.38 681.702 1541.92 C 680.892 1536.19 681.257 1523.54 681.294 1517.15 L 681.644 1471.5 C 681.702 1464.63 682.171 1454.4 681.052 1447.97 L 680.096 1447.4 C 679.246 1451.96 679.997 1465.45 679.959 1471.36 C 672.975 1468.86 679.607 1450.97 674.224 1442.6 C 672.613 1416.66 673.929 1376.15 673.935 1349.23 C 674.22 1279.21 674.132 1209.19 673.67 1139.17 C 673.392 1135.26 673.267 1131.33 673.293 1127.4 C 673.465 1085.38 700.13 1068.43 728.676 1040.21 C 732.879 1036.58 736.469 1032.41 740.465 1029.1 L 741.641 1027.88 C 748.041 1021.32 754.524 1014.85 761.088 1008.45 C 763.189 1006.45 764.105 1005.36 765.923 1003.12 C 769.71 1000.18 773.311 996.348 776.615 992.818 C 800.511 967.291 827.046 943.821 850.739 918.179 C 852.547 916.836 860.152 908.516 862.281 906.321 C 864.592 904.016 870.32 898.541 871.926 896.11 C 898.396 868.54 934.003 835.128 961.79 808.466 z" fill="rgb(12,233,245)" transform="translate(0,0)"></path>
<path d="M 961.79 808.466 L 962.216 810.373 C 951.931 822.435 935.421 836.843 923.804 848.111 C 907.096 863.456 886.496 884.632 870.821 901.165 C 870.288 904.105 869.203 912.876 867.699 914.739 C 857.994 926.761 843.518 938.154 832.359 948.608 C 808.982 970.506 786.933 993.934 764.084 1016.12 C 748.916 1030.72 733.91 1045.49 719.07 1060.43 C 698.56 1081 685.367 1090.22 681.063 1120.62 C 679.578 1127.19 679 1133.07 674.66 1138.03 L 673.67 1139.17 C 673.392 1135.26 673.267 1131.33 673.293 1127.4 C 673.465 1085.38 700.13 1068.43 728.676 1040.21 C 732.879 1036.58 736.469 1032.41 740.465 1029.1 L 741.641 1027.88 C 748.041 1021.32 754.524 1014.85 761.088 1008.45 C 763.189 1006.45 764.105 1005.36 765.923 1003.12 C 769.71 1000.18 773.311 996.348 776.615 992.818 C 800.511 967.291 827.046 943.821 850.739 918.179 C 852.547 916.836 860.152 908.516 862.281 906.321 C 864.592 904.016 870.32 898.541 871.926 896.11 C 898.396 868.54 934.003 835.128 961.79 808.466 z" fill="rgb(38,149,254)" transform="translate(0,0)"></path>
<path d="M 673.67 1139.17 L 674.66 1138.03 C 679 1133.07 679.578 1127.19 681.063 1120.62 C 682.452 1209.45 681.51 1301.17 681.798 1390.36 L 682.007 1494.57 C 681.985 1506.81 682.655 1530.38 681.702 1541.92 C 680.892 1536.19 681.257 1523.54 681.294 1517.15 L 681.644 1471.5 C 681.702 1464.63 682.171 1454.4 681.052 1447.97 L 680.096 1447.4 C 679.246 1451.96 679.997 1465.45 679.959 1471.36 C 672.975 1468.86 679.607 1450.97 674.224 1442.6 C 672.613 1416.66 673.929 1376.15 673.935 1349.23 C 674.22 1279.21 674.132 1209.19 673.67 1139.17 z" fill="rgb(21,171,251)" transform="translate(0,0)"></path>
<path d="M 961.79 808.466 C 964.284 805.153 979.088 791.046 982.852 787.312 C 1000.35 769.792 1018.06 752.483 1035.97 735.388 C 1077.64 694.865 1118.58 653.292 1160.23 612.725 C 1186.99 586.665 1212.98 590.004 1247.91 590.096 L 1306.9 590.126 C 1343.91 589.912 1380.91 589.919 1417.92 590.148 C 1423.76 590.175 1463.36 589.026 1465.65 591.52 L 1463.61 593.26 C 1456.42 595.423 1439.32 614.252 1433.15 620.237 C 1413.56 639.238 1393.46 657.744 1373.86 676.735 C 1373.03 676.884 1372.2 677.032 1371.37 677.181 L 1369.15 675.626 C 1369.37 667.596 1434.4 617.015 1438.97 606.665 L 1438.1 605.263 C 1428.6 604.967 1362.18 620.081 1357.64 624.094 C 1355.84 624.735 1346.59 627.284 1346.31 627.423 C 1340.68 628.774 1322.96 632.798 1318.65 634.74 C 1312.04 636.167 1308.17 636.956 1301.8 639.257 C 1276.04 644.28 1214.08 658.553 1193.92 670.742 C 1178.55 680.036 1165.94 695.338 1153.37 708.055 C 1140.11 721.408 1126.79 734.692 1113.39 747.906 L 927.846 931.466 L 861.841 997.419 C 853.3 1005.98 835.821 1024.5 827.1 1031.69 C 829.325 1024.24 838.672 1019.93 840.579 1014.47 C 842.598 1008.36 843.114 1000.64 845.734 994.816 C 860.218 962.59 873.088 929.264 892.192 899.414 C 895.893 893.603 898.673 885.801 902.561 880.201 C 910.022 869.454 917.085 859.385 923.804 848.111 C 935.421 836.843 951.931 822.435 962.216 810.373 L 961.79 808.466 z" fill="rgb(64,129,245)" transform="translate(0,0)"></path>
<path d="M 1036.49 1025.89 C 1039.93 1023 1038.21 1023.38 1041.68 1023.09 C 1048.37 1027.98 1057.84 1037.71 1064.16 1043.78 L 1098.71 1077.07 L 1205.39 1180.38 L 1338.43 1310.63 C 1352.09 1324.18 1377.54 1346.29 1388.63 1359.78 C 1399.69 1368.82 1417.16 1387.39 1428.01 1397.91 C 1447.61 1416.92 1468.76 1435.85 1487.29 1455.6 C 1466.36 1454.75 1440.62 1456.12 1421.43 1454.89 C 1351.58 1457.62 1279.28 1454.51 1209.27 1454.76 C 1203.92 1454.78 1196.63 1452.47 1191.77 1450.43 C 1185.11 1448.27 1178.92 1444.85 1173.55 1440.36 C 1163.64 1432 1150.71 1417.88 1141.18 1408.19 L 1092.75 1359.57 C 1064.97 1331.46 1032.41 1301.57 1006.2 1273.14 C 1003.28 1271.46 958.414 1226.92 954.241 1222.3 C 951.575 1220.64 936.252 1204.58 932.55 1200.85 C 920.467 1188.65 907.659 1177.11 895.624 1164.99 C 898.111 1161.61 899.068 1160.42 902.183 1157.45 C 907.932 1153.3 915.073 1145.24 920.758 1140.32 C 924.148 1135.14 945.737 1115.87 951.363 1110.46 C 975.036 1089.37 1006.39 1057.11 1028.86 1034.18 C 1031.59 1031.3 1033.97 1029.03 1036.49 1025.89 z" fill="url(#Gradient6)" transform="translate(0,0)"></path>
<path d="M 1036.49 1025.89 C 1039.93 1023 1038.21 1023.38 1041.68 1023.09 C 1048.37 1027.98 1057.84 1037.71 1064.16 1043.78 L 1098.71 1077.07 L 1205.39 1180.38 L 1338.43 1310.63 C 1352.09 1324.18 1377.54 1346.29 1388.63 1359.78 C 1386.09 1359.23 1385.34 1358.9 1383.11 1357.55 L 1382.01 1358.14 C 1382.23 1358.51 1385.87 1365.89 1385.91 1366.17 C 1377.46 1362.79 1304.37 1287.98 1291.59 1275.49 C 1279.23 1263.4 1259.1 1244.93 1246.05 1232.05 C 1232.93 1219.1 1218.68 1202.6 1204.58 1190.66 C 1202.93 1191.56 1203.53 1191.15 1201.14 1191.04 C 1183.8 1175.53 1176.79 1165.75 1154.98 1153.83 L 1151.88 1150.01 C 1146.55 1143.36 1135.93 1139.63 1135.11 1134.03 L 1138.27 1134.99 L 1138.26 1134.11 C 1130.85 1128.18 1125.07 1123.34 1118.09 1117 C 1107.16 1107.06 1089.46 1085.04 1075.52 1081.25 C 1074.87 1080.14 1074.73 1079.52 1073.47 1079.25 L 1072.7 1079.07 C 1070.76 1076.46 1071.76 1076.54 1070.8 1073.96 C 1068.36 1067.36 1058.78 1061.73 1053.28 1058.6 L 1049.02 1062.42 C 1047.29 1064.1 1045.59 1065.81 1043.92 1067.54 L 1041.43 1069.85 L 1039.98 1071.46 L 1034.07 1077.64 C 1032.4 1078.8 1032.14 1079.14 1030.64 1080.68 C 1027.91 1083.47 1024.38 1086.87 1021.84 1089.72 L 1021.26 1090.18 C 1020.45 1091 1017.2 1094.17 1016.68 1094.87 C 1015.24 1096.2 1013.94 1097.36 1012.6 1098.79 C 997.871 1113.28 979.507 1130.19 965.781 1144.77 C 1032.8 1207.58 1096.61 1274.78 1163.79 1337.53 C 1181.93 1354.47 1195.27 1376.49 1221.03 1382.32 C 1236.55 1385.83 1252.15 1388.46 1267.75 1391.6 C 1278.65 1393.52 1301.17 1399.16 1310.8 1399.93 C 1320.26 1402.22 1351.17 1408.71 1360.38 1409.29 C 1365.93 1411.32 1381.05 1412.71 1384.73 1414.77 L 1383.35 1415.77 L 1378.73 1415.15 C 1376.21 1418.16 1376.66 1421.44 1376.93 1425.61 C 1377.41 1432.95 1374.41 1437.29 1374.64 1444.6 C 1380.21 1449.65 1416.87 1447.14 1417.66 1448.76 L 1414.74 1449.54 L 1414.19 1451.58 C 1416.73 1454.28 1417.21 1453.68 1421.43 1454.89 C 1351.58 1457.62 1279.28 1454.51 1209.27 1454.76 C 1203.92 1454.78 1196.63 1452.47 1191.77 1450.43 C 1185.11 1448.27 1178.92 1444.85 1173.55 1440.36 C 1163.64 1432 1150.71 1417.88 1141.18 1408.19 L 1092.75 1359.57 C 1064.97 1331.46 1032.41 1301.57 1006.2 1273.14 C 1003.28 1271.46 958.414 1226.92 954.241 1222.3 C 951.575 1220.64 936.252 1204.58 932.55 1200.85 C 920.467 1188.65 907.659 1177.11 895.624 1164.99 C 898.111 1161.61 899.068 1160.42 902.183 1157.45 C 907.932 1153.3 915.073 1145.24 920.758 1140.32 C 924.148 1135.14 945.737 1115.87 951.363 1110.46 C 975.036 1089.37 1006.39 1057.11 1028.86 1034.18 C 1031.59 1031.3 1033.97 1029.03 1036.49 1025.89 z" fill="url(#Gradient5)" transform="translate(0,0)"></path>
<path d="M 1061.05 1051.59 C 1088.47 1078.61 1114.95 1105.24 1142.86 1131.95 C 1160.08 1148.43 1189.42 1173.89 1204.58 1190.66 C 1202.93 1191.56 1203.53 1191.15 1201.14 1191.04 C 1183.8 1175.53 1176.79 1165.75 1154.98 1153.83 L 1151.88 1150.01 C 1146.55 1143.36 1135.93 1139.63 1135.11 1134.03 L 1138.27 1134.99 L 1138.26 1134.11 C 1130.85 1128.18 1125.07 1123.34 1118.09 1117 C 1107.16 1107.06 1089.46 1085.04 1075.52 1081.25 C 1074.87 1080.14 1074.73 1079.52 1073.47 1079.25 L 1072.7 1079.07 C 1070.76 1076.46 1071.76 1076.54 1070.8 1073.96 C 1068.36 1067.36 1058.78 1061.73 1053.28 1058.6 L 1061.05 1051.59 z" fill="rgb(76,60,217)" transform="translate(0,0)"></path>
<path d="M 1006.2 1273.14 C 1013.05 1275.14 1040.31 1304.43 1046.54 1310.71 L 1112.21 1376.39 C 1113.16 1374.56 1112.61 1375.28 1113.78 1374.14 C 1130.53 1388.1 1147.48 1401.63 1162.02 1417.96 C 1153.43 1412.23 1147.87 1405.68 1140.23 1398.85 C 1133.27 1392.65 1125.92 1386.91 1118.22 1381.66 L 1117.62 1382 C 1130.92 1395.03 1144.1 1408.17 1157.17 1421.43 C 1163.14 1427.41 1169.15 1433.5 1175.25 1439.38 C 1179.27 1443.25 1191.22 1446.53 1191.77 1450.43 C 1185.11 1448.27 1178.92 1444.85 1173.55 1440.36 C 1163.64 1432 1150.71 1417.88 1141.18 1408.19 L 1092.75 1359.57 C 1064.97 1331.46 1032.41 1301.57 1006.2 1273.14 z" fill="rgb(80,111,239)" transform="translate(0,0)"></path>
<path d="M 920.758 1140.32 C 920.215 1146.74 908.622 1154.32 903.7 1158.94 C 905.338 1164.01 906.086 1167.67 909.677 1171.75 C 911.701 1175.54 915.041 1176.36 915.616 1180.67 C 915.945 1183.13 922.664 1187.45 924.578 1189.9 C 929.802 1196.59 953.271 1215.91 956.637 1221.94 C 956.16 1222.15 954.567 1222.26 954.241 1222.3 C 951.575 1220.64 936.252 1204.58 932.55 1200.85 C 920.467 1188.65 907.659 1177.11 895.624 1164.99 C 898.111 1161.61 899.068 1160.42 902.183 1157.45 C 907.932 1153.3 915.073 1145.24 920.758 1140.32 z" fill="rgb(21,171,251)" transform="translate(0,0)"></path>
<path d="M 1121.85 1148.39 C 1122.56 1146.62 1122.07 1147.54 1123.48 1145.69 C 1131.45 1146.03 1134.97 1156.89 1145.68 1156.64 C 1145.21 1151.98 1146.24 1153.6 1143.65 1150.94 C 1140.11 1150.4 1135.75 1151.09 1133.14 1149.34 L 1132.1 1147.01 L 1133.28 1145.47 C 1134.04 1145.71 1145.67 1148.38 1145.16 1147.87 C 1150.23 1152.83 1147.87 1152.4 1154.98 1153.83 C 1176.79 1165.75 1183.8 1175.53 1201.14 1191.04 C 1203.53 1191.15 1202.93 1191.56 1204.58 1190.66 C 1218.68 1202.6 1232.93 1219.1 1246.05 1232.05 C 1259.1 1244.93 1279.23 1263.4 1291.59 1275.49 C 1304.37 1287.98 1377.46 1362.79 1385.91 1366.17 C 1385.87 1365.89 1382.23 1358.51 1382.01 1358.14 L 1383.11 1357.55 C 1385.34 1358.9 1386.09 1359.23 1388.63 1359.78 C 1399.69 1368.82 1417.16 1387.39 1428.01 1397.91 C 1447.61 1416.92 1468.76 1435.85 1487.29 1455.6 C 1466.36 1454.75 1440.62 1456.12 1421.43 1454.89 C 1417.21 1453.68 1416.73 1454.28 1414.19 1451.58 L 1414.74 1449.54 L 1417.66 1448.76 C 1416.87 1447.14 1380.21 1449.65 1374.64 1444.6 C 1374.41 1437.29 1377.41 1432.95 1376.93 1425.61 C 1376.66 1421.44 1376.21 1418.16 1378.73 1415.15 L 1383.35 1415.77 L 1384.73 1414.77 C 1381.05 1412.71 1365.93 1411.32 1360.38 1409.29 C 1365.25 1407.53 1372.45 1412.82 1374.68 1406.18 C 1373.18 1403.37 1373.02 1403.94 1372.9 1400.83 C 1370.57 1398.34 1356.95 1390.98 1357.77 1386.91 L 1362.61 1385.8 C 1358.22 1382.15 1356.48 1385.17 1353.36 1382.13 L 1355.9 1381 L 1355.92 1381.03 L 1353.55 1378.18 C 1348.99 1377.26 1349.39 1379.29 1346.45 1378.48 C 1346.05 1378.37 1343.28 1375.25 1343.28 1374.29 C 1343.99 1373.59 1345.59 1374.38 1346.52 1373.77 L 1346.54 1373.56 C 1345.06 1371.21 1341.15 1373.8 1342.55 1370.05 C 1342.78 1369.45 1338.45 1366.74 1337.94 1366.55 C 1333.88 1365.06 1331.03 1360.89 1327.68 1357.63 C 1317.41 1347.65 1307.34 1337.25 1296.96 1327.35 C 1292.98 1323.52 1288.34 1318.68 1284.3 1314.81 C 1282.88 1313.46 1282.68 1314.1 1281.05 1311.84 C 1278.19 1310.53 1276.45 1309.23 1273.88 1307.47 C 1271.24 1303.86 1259.8 1299.14 1257.23 1292.08 C 1249.9 1287.82 1225.73 1259.78 1215.58 1251.3 L 1215.7 1249.71 C 1210.98 1241.08 1197.04 1230.85 1192.02 1223.48 C 1188.96 1218.98 1188.24 1205.81 1180.61 1199.59 C 1178.59 1203.23 1180.12 1204.84 1177.93 1206.34 C 1178.24 1203.79 1179.08 1201.08 1177.27 1199.24 L 1176.87 1203.42 L 1175.75 1203.36 L 1174.86 1200.76 C 1174.21 1201.1 1173.56 1201.43 1172.9 1201.77 C 1170.74 1199.75 1170.43 1199.18 1167.68 1197.99 C 1164 1198.36 1163.83 1198.36 1160.16 1197.88 L 1158.56 1195.78 C 1155.69 1192.43 1157.22 1192 1155.69 1190.61 C 1155.07 1190.61 1154.49 1191.88 1154.09 1191.63 C 1152.23 1190.45 1150.51 1185.5 1149.66 1183.63 C 1146.12 1181.77 1142.89 1178.67 1139.5 1180.05 C 1136.49 1176.66 1139.62 1174.66 1137.28 1171.72 C 1131.65 1164.65 1126.07 1163.65 1121.6 1155 C 1122.51 1152.04 1122.94 1151.46 1121.85 1148.39 z" fill="url(#Gradient4)" transform="translate(0,0)"></path>
<path d="M 1385.91 1366.17 C 1385.87 1365.89 1382.23 1358.51 1382.01 1358.14 L 1383.11 1357.55 C 1385.34 1358.9 1386.09 1359.23 1388.63 1359.78 C 1399.69 1368.82 1417.16 1387.39 1428.01 1397.91 C 1447.61 1416.92 1468.76 1435.85 1487.29 1455.6 C 1466.36 1454.75 1440.62 1456.12 1421.43 1454.89 C 1417.21 1453.68 1416.73 1454.28 1414.19 1451.58 L 1414.74 1449.54 L 1417.66 1448.76 C 1416.87 1447.14 1380.21 1449.65 1374.64 1444.6 C 1374.41 1437.29 1377.41 1432.95 1376.93 1425.61 C 1376.66 1421.44 1376.21 1418.16 1378.73 1415.15 L 1383.35 1415.77 L 1384.73 1414.77 C 1400.73 1415.79 1424.89 1422.99 1443.69 1424.43 C 1425.43 1404.07 1403.94 1388.45 1385.91 1366.17 z" fill="rgb(200,72,224)" transform="translate(0,0)"></path>
<path d="M 1272.1 1299.08 C 1294.93 1313.58 1322.28 1335.52 1337.44 1358.01 C 1342.21 1365.09 1348.99 1371.3 1353.55 1378.18 C 1348.99 1377.26 1349.39 1379.29 1346.45 1378.48 C 1346.05 1378.37 1343.28 1375.25 1343.28 1374.29 C 1343.99 1373.59 1345.59 1374.38 1346.52 1373.77 L 1346.54 1373.56 C 1345.06 1371.21 1341.15 1373.8 1342.55 1370.05 C 1342.78 1369.45 1338.45 1366.74 1337.94 1366.55 C 1333.88 1365.06 1331.03 1360.89 1327.68 1357.63 C 1317.41 1347.65 1307.34 1337.25 1296.96 1327.35 C 1292.98 1323.52 1288.34 1318.68 1284.3 1314.81 C 1282.88 1313.46 1282.68 1314.1 1281.05 1311.84 C 1279.66 1308.81 1278.53 1307.72 1276.49 1305 C 1275 1303.05 1273.53 1301.07 1272.1 1299.08 z" fill="rgb(66,34,158)" transform="translate(0,0)"></path>
<path d="M 1362.61 1385.8 C 1364.4 1386.17 1370.14 1387.14 1370.45 1389.76 C 1369.64 1390.21 1367.05 1388.44 1365.58 1389.11 C 1365.11 1390.14 1373.89 1397.91 1374.86 1399.37 C 1374.49 1400.04 1373.51 1400.47 1372.9 1400.83 C 1370.57 1398.34 1356.95 1390.98 1357.77 1386.91 L 1362.61 1385.8 z" fill="rgb(66,34,158)" transform="translate(0,0)"></path>
<path d="M 1238.52 1262.88 C 1238.41 1257.05 1217.09 1244.25 1219.53 1239.21 C 1223 1242.37 1220.63 1242.78 1227.69 1243.34 C 1229.28 1243.46 1227.95 1246.51 1230.15 1247.13 C 1230.45 1246.67 1230.54 1246.24 1230.67 1245.68 C 1232.16 1244.87 1232.57 1245.61 1234.16 1246.52 L 1234.38 1246.33 C 1235.24 1243.52 1232.57 1242.74 1232.22 1241.56 C 1234.55 1237.42 1220.15 1230.41 1218.23 1225.74 C 1218.01 1225.21 1214.94 1221.62 1216.26 1220.52 C 1216.94 1220.48 1218.32 1221.52 1218.83 1221.82 L 1219.54 1222.97 C 1221.11 1225.69 1223.62 1227 1225.66 1229.58 C 1229.18 1233.25 1232.68 1236.35 1235.77 1240.37 C 1238.5 1243.91 1243.71 1249.16 1247.38 1251.63 C 1252.14 1254.83 1251.38 1258.05 1254.16 1261.76 C 1255.85 1264.02 1256.98 1264.77 1259.6 1265.41 C 1264.5 1267.53 1258.19 1269.74 1255.24 1264.75 C 1255.22 1264.72 1246.44 1255.71 1245.14 1254.9 L 1243.99 1255.09 C 1243.76 1256.87 1245.51 1256.94 1246.04 1257.97 C 1249.22 1264.1 1249.41 1263.59 1255.12 1267.7 C 1257.73 1269.65 1267.36 1276.51 1267.51 1279.5 C 1267.8 1285.3 1281.2 1285.72 1275.13 1293.67 C 1272.58 1292.51 1269.46 1291.73 1267.59 1290.82 C 1266.92 1291.21 1267.17 1291.92 1266.76 1292.49 L 1266.53 1292.48 C 1265.64 1291.93 1264.66 1288.43 1262.67 1286.59 C 1254.44 1278.97 1246.95 1270.28 1238.52 1262.88 z" fill="rgb(66,34,158)" transform="translate(0,0)"></path>
<path d="M 1255.12 1267.7 C 1257.73 1269.65 1267.36 1276.51 1267.51 1279.5 C 1267.8 1285.3 1281.2 1285.72 1275.13 1293.67 C 1270.56 1284.5 1261.93 1282.26 1254.63 1274.48 L 1254.62 1274.38 L 1254.62 1274.49 C 1260.17 1269.65 1251.35 1273.01 1255.12 1267.7 z" fill="rgb(74,45,190)" transform="translate(0,0)"></path>
<path d="M 1300.36 1306.74 C 1306.95 1310.36 1316.88 1323.43 1323.81 1328.32 C 1328.62 1331.71 1331 1335.87 1334.57 1339.33 C 1340.24 1344.84 1340.17 1347.99 1345.3 1353.61 C 1341.72 1352.26 1324.28 1338.22 1322.63 1335.37 C 1319.26 1329.58 1301.33 1312.22 1300.73 1308.58 L 1300.36 1306.74 z" fill="rgb(74,45,190)" transform="translate(0,0)"></path>
<path d="M 1343.35 1363.36 C 1344.42 1360.3 1342.75 1360.66 1343.79 1358.61 L 1344.1 1358.58 C 1348.76 1360.97 1355.8 1375.3 1361.4 1376.89 C 1361.58 1377.21 1364.06 1380.92 1363.45 1381.41 C 1362.61 1382.09 1360.17 1379.22 1359.34 1378.81 C 1357.43 1377.87 1356.21 1375.82 1354.34 1374.79 C 1350.24 1371.54 1347.24 1367.25 1343.35 1363.36 z" fill="rgb(74,45,190)" transform="translate(0,0)"></path>
<path d="M 1361.4 1376.89 C 1361.72 1376.41 1362.02 1375.78 1362.53 1375.48 C 1363.41 1375.51 1371.52 1384.93 1372.19 1386 C 1374.71 1390.04 1379.5 1389.25 1379.4 1393.48 C 1379.77 1394.12 1380.13 1394.76 1380.5 1395.41 C 1373.13 1389.29 1368.22 1383.86 1361.4 1376.89 z" fill="rgb(74,45,190)" transform="translate(0,0)"></path>
<path d="M 1053.28 1058.6 C 1058.78 1061.73 1068.36 1067.36 1070.8 1073.96 C 1071.76 1076.54 1070.76 1076.46 1072.7 1079.07 L 1073.47 1079.25 C 1074.73 1079.52 1074.87 1080.14 1075.52 1081.25 C 1089.46 1085.04 1107.16 1107.06 1118.09 1117 C 1125.07 1123.34 1130.85 1128.18 1138.26 1134.11 L 1138.27 1134.99 L 1135.11 1134.03 C 1135.93 1139.63 1146.55 1143.36 1151.88 1150.01 L 1154.98 1153.83 C 1147.87 1152.4 1150.23 1152.83 1145.16 1147.87 C 1145.67 1148.38 1134.04 1145.71 1133.28 1145.47 L 1132.1 1147.01 L 1133.14 1149.34 C 1135.75 1151.09 1140.11 1150.4 1143.65 1150.94 C 1146.24 1153.6 1145.21 1151.98 1145.68 1156.64 C 1134.97 1156.89 1131.45 1146.03 1123.48 1145.69 C 1122.07 1147.54 1122.56 1146.62 1121.85 1148.39 C 1118.83 1149.57 1117.57 1149.06 1114.31 1148.4 C 1114.95 1149.43 1118.1 1153.16 1118 1154.44 C 1117.74 1157.58 1134.93 1170.55 1135.25 1173.02 C 1132.83 1175.42 1122.8 1161.26 1118.64 1159.82 C 1114.44 1161.46 1117.14 1160.32 1114.53 1159.18 L 1114.36 1159.26 C 1113.92 1161.28 1118.23 1163.17 1118 1165.11 C 1116.26 1166.1 1106.67 1156.84 1105.57 1155.85 C 1098.56 1147.07 1085.83 1139.87 1078.74 1130.52 C 1076 1126.91 1075.54 1128.49 1072.75 1123.55 C 1069.49 1117.76 1062.04 1110.76 1057.08 1106.33 C 1056.31 1105.21 1051.99 1105.06 1055.29 1103.68 L 1054.78 1102.77 C 1049.44 1093.08 1038.26 1088.28 1030.64 1080.68 C 1032.14 1079.14 1032.4 1078.8 1034.07 1077.64 L 1039.98 1071.46 L 1041.43 1069.85 L 1043.92 1067.54 C 1045.59 1065.81 1047.29 1064.1 1049.02 1062.42 L 1053.28 1058.6 z" fill="url(#Gradient3)" transform="translate(0,0)"></path>
<path d="M 1071.7 1116.09 C 1072.83 1115.48 1074 1115.02 1075.17 1114.48 C 1075.38 1112.74 1071.47 1109.31 1069.84 1108.34 C 1063.71 1104.7 1069.05 1101.87 1067.87 1098.12 C 1067.28 1096.24 1064.86 1095.94 1063.12 1092.56 C 1066.97 1091.43 1078.66 1105.95 1079.48 1108.65 C 1079.42 1108.74 1079.35 1108.83 1079.29 1108.92 L 1079.44 1108.56 C 1077.81 1109.33 1077.08 1108.74 1076.27 1109.32 C 1076.23 1109.4 1076.13 1109.56 1076.19 1109.66 C 1078.46 1113.16 1083.27 1114.89 1085.27 1118.94 C 1086.04 1120.47 1087.41 1119.97 1088.75 1119.57 C 1090.35 1119.08 1091.52 1121.95 1089.09 1121.67 C 1088.74 1121.62 1088.06 1121.82 1087.75 1122.08 L 1087.65 1122.42 C 1089.31 1124.38 1094.69 1126.06 1096.42 1123.59 C 1098.57 1127.67 1112.14 1139.08 1112.46 1141.01 L 1112.28 1141.09 L 1112.33 1140.61 L 1111.56 1141.01 C 1110.79 1140.76 1108.93 1139.89 1108.25 1140.28 C 1108.1 1141.21 1113.09 1147.44 1114.31 1148.4 C 1114.95 1149.43 1118.1 1153.16 1118 1154.44 C 1117.74 1157.58 1134.93 1170.55 1135.25 1173.02 C 1132.83 1175.42 1122.8 1161.26 1118.64 1159.82 C 1116.86 1157.88 1106.4 1146.69 1104.38 1147.35 C 1103.92 1148.14 1103.9 1148.55 1103.68 1149.54 L 1103.04 1149.72 C 1101.87 1148.71 1099.93 1142.3 1098.25 1142.25 C 1097.66 1143.24 1098.39 1144.55 1097.81 1145.51 L 1097.58 1145.52 C 1096.68 1145.01 1095.88 1143.63 1095.7 1142.74 C 1094.25 1135.79 1089.88 1138.62 1086.37 1132.63 C 1084.14 1128.84 1083.6 1124.67 1078.98 1123.18 C 1076.91 1122.51 1076.05 1121.9 1074.52 1120.47 L 1074.51 1119.95 C 1076.27 1117.96 1074.92 1117.56 1072.92 1116.7 L 1071.7 1116.09 z" fill="rgb(66,34,158)" transform="translate(0,0)"></path>
<path d="M 1034.07 1077.64 C 1042.8 1073.34 1036.95 1073.57 1045.38 1079.62 C 1049.13 1082.32 1059.05 1092.22 1060.52 1095.98 C 1058.97 1096.04 1044.71 1081.25 1041.72 1078.77 C 1036.33 1073.59 1039.43 1079.6 1040.69 1082.28 C 1043.16 1087.56 1045.42 1086.81 1048.65 1091.37 C 1054.47 1099.59 1066.14 1108.56 1071.7 1116.09 L 1072.92 1116.7 C 1074.92 1117.56 1076.27 1117.96 1074.51 1119.95 L 1074.52 1120.47 C 1076.05 1121.9 1076.91 1122.51 1078.98 1123.18 C 1083.6 1124.67 1084.14 1128.84 1086.37 1132.63 C 1089.88 1138.62 1094.25 1135.79 1095.7 1142.74 C 1095.88 1143.63 1096.68 1145.01 1097.58 1145.52 L 1097.81 1145.51 C 1098.39 1144.55 1097.66 1143.24 1098.25 1142.25 C 1099.93 1142.3 1101.87 1148.71 1103.04 1149.72 L 1103.68 1149.54 C 1103.9 1148.55 1103.92 1148.14 1104.38 1147.35 C 1106.4 1146.69 1116.86 1157.88 1118.64 1159.82 C 1114.44 1161.46 1117.14 1160.32 1114.53 1159.18 L 1114.36 1159.26 C 1113.92 1161.28 1118.23 1163.17 1118 1165.11 C 1116.26 1166.1 1106.67 1156.84 1105.57 1155.85 C 1098.56 1147.07 1085.83 1139.87 1078.74 1130.52 C 1076 1126.91 1075.54 1128.49 1072.75 1123.55 C 1069.49 1117.76 1062.04 1110.76 1057.08 1106.33 C 1056.31 1105.21 1051.99 1105.06 1055.29 1103.68 L 1054.78 1102.77 C 1049.44 1093.08 1038.26 1088.28 1030.64 1080.68 C 1032.14 1079.14 1032.4 1078.8 1034.07 1077.64 z" fill="rgb(36,17,81)" transform="translate(0,0)"></path>
<path d="M 1049.02 1062.42 C 1059.64 1065.23 1056.75 1065.45 1060.25 1073.74 L 1060.2 1073.87 C 1059.05 1074.23 1052.9 1067.59 1049.97 1068.67 C 1047.15 1069.71 1046.56 1068.67 1043.92 1067.54 C 1045.59 1065.81 1047.29 1064.1 1049.02 1062.42 z" fill="rgb(74,45,190)" transform="translate(0,0)"></path>
<path d="M 1075.52 1081.25 C 1077.03 1086.4 1079.65 1086.45 1080.45 1088.83 L 1080.35 1088.95 C 1075.93 1089.06 1064.53 1075.35 1062.27 1071.78 L 1062.4 1070.93 L 1061.9 1070.78 L 1062 1070.6 C 1064.45 1070.21 1068.05 1076.76 1072.7 1079.07 L 1073.47 1079.25 C 1074.73 1079.52 1074.87 1080.14 1075.52 1081.25 z" fill="rgb(74,45,190)" transform="translate(0,0)"></path>
<path d="M 1039.98 1071.46 L 1041.43 1069.85 C 1053.08 1078.43 1050.85 1082.66 1039.98 1071.46 z" fill="rgb(66,34,158)" transform="translate(0,0)"></path>
<path d="M 1084.06 1089.63 C 1093.03 1093.48 1095.5 1100.67 1102.51 1107.23 C 1096.76 1105.22 1089.34 1094.99 1084.71 1090.29 L 1084.06 1089.63 z" fill="rgb(74,45,190)" transform="translate(0,0)"></path>
<path d="M 1088.31 1110.27 C 1091.12 1110.77 1098.5 1119.45 1100.11 1122.1 C 1096.54 1120.74 1090.08 1113.55 1088.31 1110.27 z" fill="rgb(66,34,158)" transform="translate(0,0)"></path>
<path d="M 1030.64 1080.68 C 1038.26 1088.28 1049.44 1093.08 1054.78 1102.77 L 1055.29 1103.68 C 1051.99 1105.06 1056.31 1105.21 1057.08 1106.33 C 1062.04 1110.76 1069.49 1117.76 1072.75 1123.55 C 1075.54 1128.49 1076 1126.91 1078.74 1130.52 C 1085.83 1139.87 1098.56 1147.07 1105.57 1155.85 C 1106.69 1159.21 1111.36 1173.69 1113.01 1175.82 C 1120.74 1185.8 1134.26 1192.83 1136.08 1206.67 L 1134.25 1209.5 C 1127.57 1212.54 1118.89 1205.44 1113.57 1201.93 C 1126.97 1217.03 1148.62 1224.98 1153.76 1235.86 L 1152.25 1235.69 C 1138.84 1223.55 1123.26 1215.71 1111.2 1202.19 C 1107.91 1198.5 1102.9 1194.15 1099.29 1190.73 C 1096.81 1180.79 1091.45 1178.31 1084.72 1170.55 C 1080.53 1166.61 1075.68 1157.72 1071.31 1154.71 C 1058.8 1146.08 1054.61 1133.28 1042.2 1123.84 C 1041.5 1123.31 1035.69 1114.82 1033.81 1113.35 C 1031.04 1111.19 1018.64 1095.49 1016.68 1094.87 C 1017.2 1094.17 1020.45 1091 1021.26 1090.18 L 1021.84 1089.72 C 1024.38 1086.87 1027.91 1083.47 1030.64 1080.68 z" fill="url(#Gradient2)" transform="translate(0,0)"></path>
<path d="M 1042.58 1107.92 C 1040.39 1106.97 1041.73 1102.82 1041.48 1100.49 C 1040.62 1092.49 1050.62 1102.93 1055.29 1103.68 C 1051.99 1105.06 1056.31 1105.21 1057.08 1106.33 C 1056.31 1107.07 1055.02 1108.11 1054.67 1109.08 C 1054.97 1110.8 1059.67 1113.98 1060.81 1116.37 C 1063.53 1122.07 1067.46 1118.15 1069.82 1124.37 C 1071.31 1126.13 1073.4 1128.75 1074.8 1130.4 C 1079.17 1135.57 1084.47 1140.47 1088.56 1145.92 C 1091.01 1149.19 1097.07 1153.02 1095.84 1156.27 C 1095.29 1156.15 1094.74 1156.04 1094.19 1155.92 C 1087.08 1146.75 1074.65 1138.28 1067.47 1128.57 C 1062.13 1121.34 1055.92 1117.33 1049.37 1111.87 L 1047.86 1110.59 C 1047.14 1107.19 1045.58 1107.47 1042.58 1107.92 z" fill="rgb(37,16,84)" transform="translate(0,0)"></path>
<path d="M 1021.84 1089.72 C 1022.87 1089.38 1027.15 1087.29 1027.93 1087.8 C 1032.11 1090.48 1034.87 1093.03 1038.91 1095.39 C 1040.96 1096.58 1038.09 1101.48 1039.48 1103.45 C 1038.97 1102.73 1039.77 1115.56 1039.98 1114.15 C 1039.64 1114.47 1039.83 1114.41 1039.44 1114.41 C 1038.54 1113.67 1034.67 1108.69 1033.67 1107.5 C 1035.16 1106.56 1036.32 1107.34 1037.47 1106.54 C 1037.88 1105.69 1036.36 1105.38 1036.02 1105.45 C 1029.11 1106.89 1030.99 1102.61 1026.39 1100.35 C 1025.62 1099.98 1024 1098.22 1024.8 1097.17 C 1026.6 1096.97 1027.78 1098.91 1029.57 1098.86 L 1029.93 1098.64 C 1030.23 1097.15 1022.74 1091.1 1021.26 1090.18 L 1021.84 1089.72 z" fill="rgb(36,17,81)" transform="translate(0,0)"></path>
<path d="M 1095.84 1156.27 L 1095.46 1156.91 C 1094.03 1159.39 1094.64 1158.07 1095.01 1160.28 L 1094.89 1160.41 C 1092.7 1160.56 1080.08 1149.63 1082.22 1147.69 C 1081.67 1147.7 1090.15 1154.38 1094.19 1155.92 C 1094.74 1156.04 1095.29 1156.15 1095.84 1156.27 z" fill="rgb(36,17,81)" transform="translate(0,0)"></path>
<path d="M 1042.58 1107.92 C 1045.58 1107.47 1047.14 1107.19 1047.86 1110.59 C 1046.82 1111.05 1043.06 1113.08 1041.86 1112.19 C 1041.58 1111.21 1042.01 1110.27 1042.28 1109.33 L 1042.58 1107.92 z" fill="rgb(36,17,81)" transform="translate(0,0)"></path>
<path d="M 1221.86 1276.76 C 1222.36 1275.54 1222.28 1275.34 1222.47 1274.02 C 1213.67 1262.03 1206.08 1252.8 1194.98 1242.95 C 1193.47 1241.61 1194.99 1234.04 1195.39 1231.83 C 1199.73 1235.52 1203.54 1239.76 1208.23 1243.73 C 1210.5 1245.62 1213.32 1248.13 1215.7 1249.71 L 1215.58 1251.3 C 1225.73 1259.78 1249.9 1287.82 1257.23 1292.08 C 1259.8 1299.14 1271.24 1303.86 1273.88 1307.47 C 1276.45 1309.23 1278.19 1310.53 1281.05 1311.84 C 1282.68 1314.1 1282.88 1313.46 1284.3 1314.81 C 1288.34 1318.68 1292.98 1323.52 1296.96 1327.35 C 1307.34 1337.25 1317.41 1347.65 1327.68 1357.63 C 1331.03 1360.89 1333.88 1365.06 1337.94 1366.55 C 1338.45 1366.74 1342.78 1369.45 1342.55 1370.05 C 1341.15 1373.8 1345.06 1371.21 1346.54 1373.56 L 1346.52 1373.77 C 1345.59 1374.38 1343.99 1373.59 1343.28 1374.29 C 1343.28 1375.25 1346.05 1378.37 1346.45 1378.48 C 1349.39 1379.29 1348.99 1377.26 1353.55 1378.18 L 1355.92 1381.03 L 1355.9 1381 L 1353.36 1382.13 C 1356.48 1385.17 1358.22 1382.15 1362.61 1385.8 L 1357.77 1386.91 C 1353.07 1387.11 1354.43 1385.2 1349.88 1385.86 C 1350.8 1388.74 1351.99 1390.44 1351.19 1392.68 C 1344.48 1389.4 1342 1387.5 1337.46 1381.61 C 1339.92 1380.87 1339.27 1381.59 1340.42 1380 C 1334.93 1374.2 1332.05 1374.87 1328.57 1371.21 C 1327.35 1369.92 1326.12 1364.71 1321.83 1361.75 L 1320.83 1364.2 C 1313.59 1359.02 1306.46 1350.1 1300.32 1343.56 C 1293.78 1336.6 1280.11 1329.44 1279.43 1319.63 L 1278.47 1319.22 L 1276.58 1321.77 C 1270.46 1320.85 1263.55 1309.1 1258.11 1307.43 C 1248.3 1294.99 1243.33 1290.71 1230.63 1281.26 C 1228.28 1279.51 1226.2 1276.07 1221.86 1276.76 z" fill="rgb(36,17,81)" transform="translate(0,0)"></path>
<path d="M 1221.86 1276.76 C 1226.2 1276.07 1228.28 1279.51 1230.63 1281.26 C 1243.33 1290.71 1248.3 1294.99 1258.11 1307.43 C 1258.81 1311.75 1281.12 1331.12 1283.48 1336.86 L 1283.4 1337.15 C 1281.99 1337.29 1274.79 1330.06 1273.32 1328.46 C 1273.09 1328.63 1272.87 1330.02 1272.63 1330.57 L 1271.99 1330.71 C 1270.71 1329.67 1270.94 1326.94 1269.61 1326.32 C 1268.61 1326.66 1268.48 1327.93 1268.16 1328.83 C 1266.42 1326.21 1266.94 1326.99 1264.15 1325.98 C 1261.18 1324.9 1261.3 1320.83 1259.85 1319.37 L 1259.63 1319.39 C 1259.25 1319.62 1258.88 1319.85 1258.51 1320.07 L 1258.98 1319.99 C 1256.72 1321.57 1255.17 1313.23 1252.04 1312.48 C 1248.45 1311.61 1243.24 1305.3 1240.71 1302.51 C 1239.43 1301.1 1237.16 1297.45 1235.29 1296.03 C 1232.92 1292.68 1229.57 1289.22 1226.87 1286.17 C 1226.34 1281.99 1221.54 1281.35 1221.86 1276.76 z" fill="rgb(37,16,84)" transform="translate(0,0)"></path>
<path d="M 1016.68 1094.87 C 1018.64 1095.49 1031.04 1111.19 1033.81 1113.35 C 1035.69 1114.82 1041.5 1123.31 1042.2 1123.84 C 1054.61 1133.28 1058.8 1146.08 1071.31 1154.71 C 1075.68 1157.72 1080.53 1166.61 1084.72 1170.55 C 1091.45 1178.31 1096.81 1180.79 1099.29 1190.73 C 1091.57 1181.01 1084.97 1172.14 1075.73 1163.56 C 1074.32 1162.24 1070.47 1156.35 1068.85 1155.19 C 1063.87 1151.46 1057.96 1150.13 1054.6 1144.17 C 1052.37 1140.2 1040.2 1128.92 1039.35 1125.64 C 1038.06 1120.63 1032.86 1112.53 1028 1111.49 C 1022.08 1110.22 1017.29 1103 1012.6 1098.79 C 1013.94 1097.36 1015.24 1096.2 1016.68 1094.87 z" fill="rgb(14,8,36)" transform="translate(0,0)"></path>
<path d="M 1217.51 1281.16 C 1221.07 1279.95 1222.68 1284.13 1226.87 1286.17 C 1229.57 1289.22 1232.92 1292.68 1235.29 1296.03 C 1237.16 1297.45 1239.43 1301.1 1240.71 1302.51 C 1243.24 1305.3 1248.45 1311.61 1252.04 1312.48 C 1255.17 1313.23 1256.72 1321.57 1258.98 1319.99 L 1258.51 1320.07 C 1258.88 1319.85 1259.25 1319.62 1259.63 1319.39 L 1259.85 1319.37 C 1261.3 1320.83 1261.18 1324.9 1264.15 1325.98 C 1266.94 1326.99 1266.42 1326.21 1268.16 1328.83 C 1262.24 1329.28 1258.66 1325.07 1254.09 1321.36 C 1249.59 1314.71 1238.91 1311.76 1233.24 1302.93 C 1228.26 1295.16 1223.51 1288.2 1217.51 1281.16 z" fill="rgb(36,17,81)" transform="translate(0,0)"></path>
<path d="M 1139.5 1180.05 C 1142.89 1178.67 1146.12 1181.77 1149.66 1183.63 C 1150.51 1185.5 1152.23 1190.45 1154.09 1191.63 C 1154.49 1191.88 1155.07 1190.61 1155.69 1190.61 C 1157.22 1192 1155.69 1192.43 1158.56 1195.78 L 1158.4 1196.2 C 1157.74 1197.93 1157.22 1199.56 1156.78 1201.36 C 1156.64 1201.38 1156.5 1201.39 1156.36 1201.41 C 1155.04 1200.34 1155.87 1198.22 1154.57 1197.17 L 1154.35 1197.2 C 1154.03 1197.86 1154 1197.95 1153.59 1198.45 C 1152.25 1198.2 1151.67 1194.39 1151.35 1193.49 C 1150.04 1189.78 1142.75 1183.63 1139.5 1180.05 z" fill="rgb(66,34,158)" transform="translate(0,0)"></path>
<path d="M 1178.79 1219.5 C 1186.84 1221.62 1183.73 1225.52 1186.35 1225.9 C 1186.98 1225.47 1186.79 1224.61 1187.48 1223.63 L 1187.47 1223.63 C 1190.66 1226.34 1190.61 1228.29 1190.22 1232.01 C 1186.75 1232.08 1186.23 1226.52 1184.48 1226.16 C 1183.93 1226.46 1184.14 1227.38 1183.49 1227.44 C 1184.21 1228.1 1179.05 1219.88 1178.79 1219.5 z" fill="rgb(36,17,81)" transform="translate(0,0)"></path>
<path d="M 1192.07 1227.6 C 1194.98 1231.44 1193.55 1233.21 1192.35 1237.4 C 1190.91 1233.45 1191.09 1231.47 1192.07 1227.6 z" fill="rgb(36,17,81)" transform="translate(0,0)"></path>
<path d="M 1163.41 1228.64 L 1164.53 1228.96 C 1167.71 1229.85 1168.49 1230.05 1170.35 1232.81 L 1171.36 1234.2 C 1167.72 1232.06 1166.74 1231.24 1163.41 1228.64 z" fill="rgb(36,17,81)" transform="translate(0,0)"></path>
<path d="M 674.538 483.098 C 691.106 501.311 709.685 519.289 727.179 536.742 L 814.561 623.386 C 831.581 640.24 848.981 656.873 865.402 674.295 C 876.396 685.957 881.722 699.458 882.573 715.402 C 884.821 757.53 882.744 799.841 883.8 842.018 C 883.874 845.033 882.971 849.559 882.257 852.505 C 879.611 850.59 878.219 849.991 876.551 847.233 C 877.116 841.646 876.992 838.934 876.879 833.324 C 875.964 833.31 875.021 833.331 874.103 833.339 C 868.6 838.389 860.943 845.376 855.205 849.678 C 854.323 851.035 843.189 860.986 840.218 864.503 C 838.012 865.76 837.688 866.144 835.696 867.825 C 829.704 873.304 823.907 879.647 817.991 885.304 L 786.489 916.084 C 783.786 925.145 785.415 922.542 789.618 932.979 C 791.24 937.007 791.476 941.996 792.39 946.125 C 788.02 950.516 783.138 954.634 778.528 958.812 C 776.869 960.358 766.998 969.366 765.839 970.191 C 762.608 973.1 755.721 979.15 753.417 982.479 L 751.647 983.359 C 749.629 985.426 746.178 988.317 744.688 990.335 C 742.391 992.276 738.565 995.547 736.668 997.707 C 733.276 1000.45 730.011 1003.76 726.782 1006.2 C 725.905 1007.01 725.46 1007.49 724.681 1008.38 C 722.516 1010.41 714.129 1017.67 712.868 1019.35 C 702.128 1028.34 685.449 1045.05 675.561 1054.91 C 675.449 1049.1 675.321 1044.64 675.519 1038.76 C 676.909 939.235 674.95 838.489 675.441 738.739 L 675.058 557.716 C 675.118 542.946 675.068 528.175 674.908 513.406 C 674.748 504.038 674.013 492.084 674.538 483.098 z" fill="rgb(12,233,245)" transform="translate(0,0)"></path>
<path d="M 745.799 655.389 C 760.037 660.808 808.075 701.649 812.905 714.8 C 825.168 748.192 816.797 811.829 817.693 848.76 C 817.963 859.863 814.765 875.594 817.991 885.304 L 786.489 916.084 C 783.786 925.145 785.415 922.542 789.618 932.979 C 791.24 937.007 791.476 941.996 792.39 946.125 C 788.02 950.516 783.138 954.634 778.528 958.812 C 776.869 960.358 766.998 969.366 765.839 970.191 C 762.608 973.1 755.721 979.15 753.417 982.479 L 751.647 983.359 C 743.252 977.41 747.837 969.04 746.13 957.935 L 745.793 954.602 C 745.144 926.915 745.895 895.78 745.899 867.873 L 745.75 672.51 C 745.906 666.999 745.79 660.948 745.799 655.389 z" fill="rgb(0,0,0)" transform="translate(0,0)"></path>
<path d="M 786.489 916.084 C 783.786 925.145 785.415 922.542 789.618 932.979 C 791.24 937.007 791.476 941.996 792.39 946.125 C 788.02 950.516 783.138 954.634 778.528 958.812 C 776.869 960.358 766.998 969.366 765.839 970.191 C 762.608 973.1 755.721 979.15 753.417 982.479 L 751.647 983.359 C 743.252 977.41 747.837 969.04 746.13 957.935 L 745.793 954.602 C 747.892 952.791 749.616 950.992 751.806 949.124 C 753.213 946.965 770.197 931.163 772.449 929.678 C 776.202 925.584 782.332 920.119 786.489 916.084 z" fill="rgb(125,104,230)" transform="translate(0,0)"></path>
<path d="M 786.489 916.084 C 783.786 925.145 785.415 922.542 789.618 932.979 C 791.24 937.007 791.476 941.996 792.39 946.125 C 788.02 950.516 783.138 954.634 778.528 958.812 C 777.994 949.968 778.155 945.455 774.74 937.052 C 772.522 931.593 776.921 933.187 777.849 931.898 C 777.885 930.787 777.677 929.292 776.638 928.666 C 774.717 928.693 775.368 931.466 772.449 929.678 C 776.202 925.584 782.332 920.119 786.489 916.084 z" fill="rgb(185,90,229)" transform="translate(0,0)"></path>
<path d="M 751.806 949.124 C 749.485 957.562 745.035 957.57 756.524 969.307 C 756.726 969.514 760.862 968.568 761.874 968.427 C 761.479 967.831 761.093 967.346 760.969 966.641 C 762.08 965.365 765.208 969.316 765.839 970.191 C 762.608 973.1 755.721 979.15 753.417 982.479 L 751.647 983.359 C 743.252 977.41 747.837 969.04 746.13 957.935 L 745.793 954.602 C 747.892 952.791 749.616 950.992 751.806 949.124 z" fill="rgb(80,111,239)" transform="translate(0,0)"></path>
<path d="M 749.05 571.076 C 756.003 580.197 775.145 596.178 784.929 605.504 L 817.457 636.477 C 819.867 638.757 830.095 648.699 832.117 650.193 L 832.98 651.253 C 847.585 668.916 864.553 677.544 871.981 700.816 C 878.542 721.367 875.263 741.222 876.034 762.493 C 876.206 782.95 876.985 805.018 875.205 825.261 C 874.993 827.973 874.625 830.67 874.103 833.339 C 868.6 838.389 860.943 845.376 855.205 849.678 C 854.323 851.035 843.189 860.986 840.218 864.503 C 838.012 865.76 837.688 866.144 835.696 867.825 C 829.704 873.304 823.907 879.647 817.991 885.304 C 814.765 875.594 817.963 859.863 817.693 848.76 C 816.797 811.829 825.168 748.192 812.905 714.8 C 808.075 701.649 760.037 660.808 745.799 655.389 C 745.451 646.775 745.848 635.438 745.889 626.609 C 745.557 619.303 746.062 609.852 746.254 602.389 C 746.24 589.922 745.625 583.323 749.05 571.076 z" fill="rgb(76,60,217)" transform="translate(0,0)"></path>
<path d="M 745.889 626.609 C 777.33 644.618 825.734 679.729 834.429 716.836 C 842.613 751.758 838.581 791.687 836.898 827.337 C 836.33 840.152 834.457 855.556 835.696 867.825 C 829.704 873.304 823.907 879.647 817.991 885.304 C 814.765 875.594 817.963 859.863 817.693 848.76 C 816.797 811.829 825.168 748.192 812.905 714.8 C 808.075 701.649 760.037 660.808 745.799 655.389 C 745.451 646.775 745.848 635.438 745.889 626.609 z" fill="rgb(36,17,81)" transform="translate(0,0)"></path>
<path d="M 746.254 602.389 C 747.506 607.202 747.406 609.823 747.306 614.82 L 748 615.481 L 749.475 614.606 L 753.398 616.913 C 756.146 614.357 754.578 608.462 760.259 609.764 C 769.943 611.982 765.391 618.647 777.502 621.316 L 777.482 622.273 C 777.463 623.847 777.464 623.248 777.572 625.42 C 788.795 631.064 799.312 643.608 811.934 649.927 C 819.26 653.594 843.462 680.732 844.959 688.219 L 843.634 690.553 C 862.734 730.245 858.191 801.746 854.093 845.123 C 854.03 845.787 853.101 846.936 852.661 847.525 L 850.498 846.883 C 850.101 849.319 849.913 850.312 849.732 852.782 C 850.956 851.361 852.223 850.022 853.577 848.724 L 855.205 849.678 C 854.323 851.035 843.189 860.986 840.218 864.503 C 838.012 865.76 837.688 866.144 835.696 867.825 C 834.457 855.556 836.33 840.152 836.898 827.337 C 838.581 791.687 842.613 751.758 834.429 716.836 C 825.734 679.729 777.33 644.618 745.889 626.609 C 745.557 619.303 746.062 609.852 746.254 602.389 z" fill="rgb(74,45,190)" transform="translate(0,0)"></path>
<path d="M 674.538 483.098 C 691.106 501.311 709.685 519.289 727.179 536.742 L 814.561 623.386 C 831.581 640.24 848.981 656.873 865.402 674.295 C 876.396 685.957 881.722 699.458 882.573 715.402 C 884.821 757.53 882.744 799.841 883.8 842.018 C 883.874 845.033 882.971 849.559 882.257 852.505 C 879.611 850.59 878.219 849.991 876.551 847.233 C 877.116 841.646 876.992 838.934 876.879 833.324 C 875.964 833.31 875.021 833.331 874.103 833.339 C 874.625 830.67 874.993 827.973 875.205 825.261 C 876.985 805.018 876.206 782.95 876.034 762.493 C 875.263 741.222 878.542 721.367 871.981 700.816 C 864.553 677.544 847.585 668.916 832.98 651.253 L 832.117 650.193 C 830.095 648.699 819.867 638.757 817.457 636.477 L 784.929 605.504 C 775.145 596.178 756.003 580.197 749.05 571.076 C 745.625 583.323 746.24 589.922 746.254 602.389 C 746.062 609.852 745.557 619.303 745.889 626.609 C 745.848 635.438 745.451 646.775 745.799 655.389 C 745.79 660.948 745.906 666.999 745.75 672.51 C 745.276 667.852 745.114 662.228 745.115 657.491 C 745.121 627.296 744.348 596.565 746.057 566.44 C 735.189 555.103 725.243 544.652 713.988 533.699 C 703.731 523.716 691.266 512.242 681.995 501.595 L 682.218 563.691 C 680.655 605.407 683.247 647.723 681.423 689.978 C 680.32 683.838 681.037 638.873 681.104 629.681 L 680.342 629.637 C 673.777 641.469 680.405 729.721 675.441 738.739 L 675.058 557.716 C 675.118 542.946 675.068 528.175 674.908 513.406 C 674.748 504.038 674.013 492.084 674.538 483.098 z" fill="rgb(64,129,245)" transform="translate(0,0)"></path>
<path d="M 832.117 650.193 C 838.36 652.609 841.755 658.895 846.781 663.061 C 883.14 693.194 877.697 714.911 877.162 756.179 L 876.879 833.324 C 875.964 833.31 875.021 833.331 874.103 833.339 C 874.625 830.67 874.993 827.973 875.205 825.261 C 876.985 805.018 876.206 782.95 876.034 762.493 C 875.263 741.222 878.542 721.367 871.981 700.816 C 864.553 677.544 847.585 668.916 832.98 651.253 L 832.117 650.193 z" fill="rgb(80,111,239)" transform="translate(0,0)"></path>
<path d="M 682.218 563.691 C 683.258 581.02 682.856 602.621 682.931 620.292 C 683.156 656.321 683.001 692.352 682.465 728.378 C 681.706 787.741 684.371 847.109 681.924 906.494 C 680.819 933.296 681.296 961.762 682.92 988.513 C 683.492 997.938 681.177 1030.21 683.225 1036.96 C 681.454 1039.4 678.458 1038.57 675.519 1038.76 C 676.909 939.235 674.95 838.489 675.441 738.739 C 680.405 729.721 673.777 641.469 680.342 629.637 L 681.104 629.681 C 681.037 638.873 680.32 683.838 681.423 689.978 C 683.247 647.723 680.655 605.407 682.218 563.691 z" fill="rgb(21,171,251)" transform="translate(0,0)"></path>
<path d="M 746.13 957.935 C 747.837 969.04 743.252 977.41 751.647 983.359 C 749.629 985.426 746.178 988.317 744.688 990.335 C 742.391 992.276 738.565 995.547 736.668 997.707 C 733.276 1000.45 730.011 1003.76 726.782 1006.2 C 725.905 1007.01 725.46 1007.49 724.681 1008.38 C 722.516 1010.41 714.129 1017.67 712.868 1019.35 C 702.128 1028.34 685.449 1045.05 675.561 1054.91 C 675.449 1049.1 675.321 1044.64 675.519 1038.76 C 678.458 1038.57 681.454 1039.4 683.225 1036.96 C 703.248 1017.73 725.186 1000.17 744.511 980.194 C 744.754 979.843 744.998 979.492 745.241 979.141 L 746.017 978.055 C 745.978 971.308 745.762 964.669 746.13 957.935 z" fill="rgb(21,171,251)" transform="translate(0,0)"></path>
<path d="M 874.103 833.339 C 875.021 833.331 875.964 833.31 876.879 833.324 C 876.992 838.934 877.116 841.646 876.551 847.233 C 878.219 849.991 879.611 850.59 882.257 852.505 C 877.663 870.036 870.188 874.429 857.695 886.748 C 857.051 887.417 856.984 887.384 856.125 887.832 C 851.022 891.528 841.211 900.678 836.296 905.361 C 823.887 917.48 805.397 935.48 792.39 946.125 C 791.476 941.996 791.24 937.007 789.618 932.979 C 785.415 922.542 783.786 925.145 786.489 916.084 L 817.991 885.304 C 823.907 879.647 829.704 873.304 835.696 867.825 C 837.688 866.144 838.012 865.76 840.218 864.503 C 843.189 860.986 854.323 851.035 855.205 849.678 C 860.943 845.376 868.6 838.389 874.103 833.339 z" fill="rgb(200,72,224)" transform="translate(0,0)"></path>
<path d="M 874.103 833.339 C 875.021 833.331 875.964 833.31 876.879 833.324 C 876.992 838.934 877.116 841.646 876.551 847.233 C 878.219 849.991 879.611 850.59 882.257 852.505 C 877.663 870.036 870.188 874.429 857.695 886.748 C 858.216 884.031 858.391 882.664 858.528 879.902 L 858.578 878.667 L 858.676 876.975 C 858.022 873.442 866.121 868.628 867.623 863.596 L 867.337 863.292 C 862.841 863.386 856.021 857.839 852.763 855.044 C 849.817 857.896 844.2 863.932 840.218 864.503 C 843.189 860.986 854.323 851.035 855.205 849.678 C 860.943 845.376 868.6 838.389 874.103 833.339 z" fill="rgb(125,104,230)" transform="translate(0,0)"></path>
<path d="M 858.676 876.975 C 867.945 870.799 872.141 856.512 876.551 847.233 C 878.219 849.991 879.611 850.59 882.257 852.505 C 877.663 870.036 870.188 874.429 857.695 886.748 C 858.216 884.031 858.391 882.664 858.528 879.902 L 858.578 878.667 L 858.676 876.975 z" fill="rgb(154,144,233)" transform="translate(0,0)"></path>
<path d="M 836.296 905.361 C 837.631 905.126 841.527 903.841 842.073 904.524 C 843.902 906.792 846.154 903.531 846.756 902.302 C 848.666 898.408 853.341 901.495 851.405 903.852 C 851.048 904.287 848.747 903.78 847.761 905.524 C 848.518 905.909 847.96 905.668 849.769 906.258 C 848.375 908.553 845.539 908.682 845.402 909.566 C 845.746 910.149 846.37 910.29 846.901 910.67 C 847.636 913.558 841.894 911.173 845.812 915.564 C 845.366 916.83 843.384 917.078 844.211 918.662 C 846.188 919.31 846.032 916.055 850.739 918.179 C 827.046 943.821 800.511 967.291 776.615 992.818 C 773.311 996.348 769.71 1000.18 765.923 1003.12 C 765.031 999.1 771.62 998.081 770.541 993.155 C 770.263 991.889 766.799 995.226 766.206 995.62 C 763.498 997.418 762.318 1000.34 759.439 1002.92 C 753.667 1002.53 754.811 996.827 754.416 994.698 C 753.126 987.732 759.208 985.209 753.417 982.479 C 755.721 979.15 762.608 973.1 765.839 970.191 C 766.998 969.366 776.869 960.358 778.528 958.812 C 783.138 954.634 788.02 950.516 792.39 946.125 C 805.397 935.48 823.887 917.48 836.296 905.361 z" fill="url(#Gradient1)" transform="translate(0,0)"></path>
<path d="M 1008.55 1040.16 C 1011.61 1037.11 1015.35 1033.49 1018.64 1030.72 C 1023.8 1035.04 1023.06 1029.99 1028.86 1034.18 C 1006.39 1057.11 975.036 1089.37 951.363 1110.46 C 952.891 1106.41 958.551 1102.41 957.577 1100.57 C 958.271 1097.21 961.905 1094.51 958.809 1090 C 960.086 1088.2 970.28 1078.44 972.542 1076.2 L 1001.78 1046.85 C 1007.91 1048.17 1009.63 1047.64 1008.55 1040.16 z" fill="rgb(254,254,254)" fill-opacity="0.843137" transform="translate(0,0)"></path>
<path d="M 958.809 1090 C 961.905 1094.51 958.271 1097.21 957.577 1100.57 C 958.551 1102.41 952.891 1106.41 951.363 1110.46 C 945.737 1115.87 924.148 1135.14 920.758 1140.32 C 915.073 1145.24 907.932 1153.3 902.183 1157.45 C 901.048 1155.19 898.092 1156.29 894.466 1155.14 C 898.658 1149.64 914.536 1133.96 920.066 1128.64 C 932.719 1116.45 946.048 1101.59 958.809 1090 z" fill="rgb(254,254,254)" fill-opacity="0.584314" transform="translate(0,0)"></path>
<path d="M 724.681 1008.38 C 725.808 1011.29 727.854 1012.82 727.607 1015.97 C 727.552 1016.67 728.718 1021.22 729.522 1021.25 C 739.383 1021.73 735.297 1022.3 740.465 1029.1 C 736.469 1032.41 732.879 1036.58 728.676 1040.21 C 722.961 1039.39 718.715 1039.65 712.999 1039.54 L 709.625 1039.49 L 709.4 1039.35 L 709.462 1039.42 C 711.319 1035.78 715.279 1022.52 712.868 1019.35 C 714.129 1017.67 722.516 1010.41 724.681 1008.38 z" fill="rgb(254,254,254)" fill-opacity="0.188235" transform="translate(0,0)"></path>
<path d="M 856.125 887.832 L 857.486 888.201 C 862.003 889.379 867.569 893.61 871.926 896.11 C 870.32 898.541 864.592 904.016 862.281 906.321 C 855.778 907.008 855.944 906.297 849.769 906.258 C 847.96 905.668 848.518 905.909 847.761 905.524 C 848.747 903.78 851.048 904.287 851.405 903.852 C 853.341 901.495 848.666 898.408 846.756 902.302 C 846.154 903.531 843.902 906.792 842.073 904.524 C 841.527 903.841 837.631 905.126 836.296 905.361 C 841.211 900.678 851.022 891.528 856.125 887.832 z" fill="rgb(254,254,254)" fill-opacity="0.729412" transform="translate(0,0)"></path>
<path d="M 753.417 982.479 C 759.208 985.209 753.126 987.732 754.416 994.698 C 754.811 996.827 753.667 1002.53 759.439 1002.92 C 762.318 1000.34 763.498 997.418 766.206 995.62 C 766.799 995.226 770.263 991.889 770.541 993.155 C 771.62 998.081 765.031 999.1 765.923 1003.12 C 764.105 1005.36 763.189 1006.45 761.088 1008.45 C 753.163 1008.25 747.271 1008.35 739.622 1008.55 C 742.315 1005.65 743.326 1003.95 744.779 1000.21 C 747.077 997.878 745.897 993.146 744.688 990.335 C 746.178 988.317 749.629 985.426 751.647 983.359 L 753.417 982.479 z" fill="rgb(254,254,254)" fill-opacity="0.615686" transform="translate(0,0)"></path>
<path d="M 734.242 1004.07 L 737.486 1005.66 C 738.027 1007.37 738.154 1007.21 739.622 1008.55 C 747.271 1008.35 753.163 1008.25 761.088 1008.45 C 754.524 1014.85 748.041 1021.32 741.641 1027.88 C 742.049 1025.77 744.921 1019.32 742.035 1018.13 C 741.636 1017.96 737.887 1020.94 737.719 1018.48 L 737.867 1018.76 C 739.488 1015.97 739.924 1018.55 739.974 1015.52 C 740.73 1011.61 736.038 1015.35 736.007 1011.08 C 735.989 1008.47 734.837 1006.73 734.242 1004.07 z" fill="rgb(254,254,254)" fill-opacity="0.47451" transform="translate(0,0)"></path>
<path d="M 726.782 1006.2 C 731.594 1012.68 732.084 1013.2 739.974 1015.52 C 739.924 1018.55 739.488 1015.97 737.867 1018.76 L 737.719 1018.48 C 737.887 1020.94 741.636 1017.96 742.035 1018.13 C 744.921 1019.32 742.049 1025.77 741.641 1027.88 L 740.465 1029.1 C 735.297 1022.3 739.383 1021.73 729.522 1021.25 C 728.718 1021.22 727.552 1016.67 727.607 1015.97 C 727.854 1012.82 725.808 1011.29 724.681 1008.38 C 725.46 1007.49 725.905 1007.01 726.782 1006.2 z" fill="rgb(254,254,254)" fill-opacity="0.419608" transform="translate(0,0)"></path>
<path d="M 1018.64 1030.72 C 1021.48 1027.85 1027.05 1022.05 1030.11 1019.78 C 1032.9 1024.08 1032.34 1022.98 1036.49 1025.89 C 1033.97 1029.03 1031.59 1031.3 1028.86 1034.18 C 1023.06 1029.99 1023.8 1035.04 1018.64 1030.72 z" fill="rgb(254,254,254)" fill-opacity="0.698039" transform="translate(0,0)"></path>
<path d="M 849.769 906.258 C 855.944 906.297 855.778 907.008 862.281 906.321 C 860.152 908.516 852.547 916.836 850.739 918.179 C 846.032 916.055 846.188 919.31 844.211 918.662 C 843.384 917.078 845.366 916.83 845.812 915.564 C 841.894 911.173 847.636 913.558 846.901 910.67 C 846.37 910.29 845.746 910.149 845.402 909.566 C 845.539 908.682 848.375 908.553 849.769 906.258 z" fill="rgb(254,254,254)" fill-opacity="0.87451" transform="translate(0,0)"></path>
<path d="M 726.782 1006.2 C 730.011 1003.76 733.276 1000.45 736.668 997.707 C 739.686 1001.89 737.828 1000.75 734.242 1004.07 C 734.837 1006.73 735.989 1008.47 736.007 1011.08 C 736.038 1015.35 740.73 1011.61 739.974 1015.52 C 732.084 1013.2 731.594 1012.68 726.782 1006.2 z" fill="rgb(254,254,254)" fill-opacity="0.431373" transform="translate(0,0)"></path>
<path d="M 744.688 990.335 C 745.897 993.146 747.077 997.878 744.779 1000.21 L 743.587 999.9 C 739.402 998.347 739.051 1001.71 737.486 1005.66 L 734.242 1004.07 C 737.828 1000.75 739.686 1001.89 736.668 997.707 C 738.565 995.547 742.391 992.276 744.688 990.335 z" fill="rgb(254,254,254)" fill-opacity="0.513725" transform="translate(0,0)"></path>
<path d="M 737.486 1005.66 C 739.051 1001.71 739.402 998.347 743.587 999.9 L 744.779 1000.21 C 743.326 1003.95 742.315 1005.65 739.622 1008.55 C 738.154 1007.21 738.027 1007.37 737.486 1005.66 z" fill="rgb(254,254,254)" fill-opacity="0.537255" transform="translate(0,0)"></path>
<path d="M 1008.55 1040.16 C 1009.63 1047.64 1007.91 1048.17 1001.78 1046.85 L 1008.55 1040.16 z" fill="rgb(254,254,254)" fill-opacity="0.905882" transform="translate(0,0)"></path>
<metadata><recraft-signature>{"signed_by": "recraft", "signature_b64": "jpGaz7UsLDtthO3rbCYjNFyNBiS/5K2t9WL+KnTfp/tG6mG9DPl8S+ojAckl0vz3KswyvDUv/sgSptepX1Z2DQ==", "signing_algo": "Ed25519", "generation_timestamp": 1781846564, "identifier": "17aaec2f-c480-42ed-9a2b-83092204d4b9"}</recraft-signature></metadata></svg>